<svg xmlns="http://www.w3.org/2000/svg" width="26" height="26" viewBox="0 0 26 26">
    <path fill="#00B896" fill-rule="evenodd" d="M21 0c2.761 0 5 2.239 5 5s-2.239 5-5 5c-1.488 0-2.824-.65-3.74-1.682l-7.183 4.941 7.221 4.38C18.213 16.632 19.533 16 21 16c2.761 0 5 2.239 5 5s-2.239 5-5 5-5-2.239-5-5c0-.266.02-.528.06-.783l-7.026-4.262C8.124 17.195 6.656 18 5 18c-2.761 0-5-2.239-5-5s2.239-5 5-5c1.755 0 3.298.904 4.19 2.271l6.842-4.706C16.01 5.379 16 5.19 16 5c0-2.761 2.239-5 5-5zm0 19.333c-.92 0-1.667.747-1.667 1.667s.747 1.667 1.667 1.667 1.667-.747 1.667-1.667-.747-1.667-1.667-1.667zm-16-8c-.92 0-1.667.747-1.667 1.667S4.08 14.667 5 14.667 6.667 13.92 6.667 13 5.92 11.333 5 11.333zm16-8c-.92 0-1.667.747-1.667 1.667S20.08 6.667 21 6.667 22.667 5.92 22.667 5 21.92 3.333 21 3.333z"/>
</svg>
