<svg xmlns="http://www.w3.org/2000/svg" width="40" height="40" viewBox="0 0 40 40">
    <g fill="#8C8C8C" fill-rule="evenodd">
        <circle cx="20" cy="20" r="20" opacity=".2"/>
        <path d="M18.409 20l-7.08-7.08c-.439-.439-.439-1.151 0-1.59.44-.44 1.152-.44 1.591 0L20 18.409l7.08-7.08c.439-.439 1.151-.439 1.59 0 .44.44.44 1.152 0 1.591L21.591 20l7.08 7.08c.439.439.439 1.151 0 1.59-.44.44-1.152.44-1.591 0L20 21.591l-7.08 7.08c-.439.439-1.151.439-1.59 0-.44-.44-.44-1.152 0-1.591L18.409 20z"/>
    </g>
</svg>
