<?xml version="1.0" encoding="UTF-8"?>
<svg width="20px" height="20px" viewBox="0 0 20 20" version="1.1" xmlns="http://www.w3.org/2000/svg" xmlns:xlink="http://www.w3.org/1999/xlink">
    <title>icon/iconDelete20Hover</title>
    <g id="icon/iconDelete20Hover" stroke="none" stroke-width="1" fill="none" fill-rule="evenodd">
        <g id="iconTrashBin">
            <circle id="Oval" fill="#545454" cx="10" cy="10" r="10"></circle>
            <path d="M9.11611652,10 L5.18305826,6.06694174 C4.93898058,5.82286406 4.93898058,5.42713594 5.18305826,5.18305826 C5.42713594,4.93898058 5.82286406,4.93898058 6.06694174,5.18305826 L10,9.11611652 L13.9330583,5.18305826 C14.1771359,4.93898058 14.5728641,4.93898058 14.8169417,5.18305826 C15.0610194,5.42713594 15.0610194,5.82286406 14.8169417,6.06694174 L10.8838835,10 L14.8169417,13.9330583 C15.0610194,14.1771359 15.0610194,14.5728641 14.8169417,14.8169417 C14.5728641,15.0610194 14.1771359,15.0610194 13.9330583,14.8169417 L10,10.8838835 L6.06694174,14.8169417 C5.82286406,15.0610194 5.42713594,15.0610194 5.18305826,14.8169417 C4.93898058,14.5728641 4.93898058,14.1771359 5.18305826,13.9330583 L9.11611652,10 Z" id="Shape" fill="#FFFFFF"></path>
        </g>
    </g>
</svg>