<svg xmlns="http://www.w3.org/2000/svg" width="20" height="20" viewBox="0 0 20 20">
    <path fill="#545454" fill-rule="evenodd" d="M14.966 2c1.51 0 2.735 1.225 2.735 2.735 0 1.51-1.225 2.735-2.735 2.735-.732 0-1.397-.287-1.888-.756L8.467 9.283l-.002.063c-.012.195-.044.385-.094.567l4.665 2.799c.494-.493 1.177-.797 1.93-.797 1.51 0 2.735 1.224 2.735 2.735 0 1.51-1.225 2.735-2.735 2.735-1.51 0-2.735-1.225-2.735-2.735 0-.19.02-.375.056-.554L7.53 11.242c-.48.419-1.109.673-1.796.673C4.225 11.915 3 10.69 3 9.179c0-1.51 1.225-2.735 2.735-2.735.973 0 1.827.508 2.312 1.274l4.253-2.37c-.045-.197-.07-.402-.07-.613C12.23 3.225 13.456 2 14.967 2zm-.009 11.487c-.637 0-1.154.517-1.154 1.154 0 .637.517 1.154 1.154 1.154.638 0 1.154-.517 1.154-1.154 0-.637-.516-1.154-1.154-1.154zm-9.23-5.47c-.638 0-1.154.517-1.154 1.154 0 .637.516 1.154 1.153 1.154.638 0 1.154-.517 1.154-1.154 0-.637-.516-1.154-1.154-1.154zm9.23-4.444c-.637 0-1.154.516-1.154 1.153 0 .638.517 1.154 1.154 1.154.638 0 1.154-.516 1.154-1.154 0-.637-.516-1.153-1.154-1.153z"/>
</svg>
