<svg xmlns="http://www.w3.org/2000/svg" width="55" height="55" viewBox="0 0 55 55">
    <g fill="none" transform="matrix(1 0 0 -1 0 55)">
        <rect width="55" height="55" fill="#3ACE01" rx="7"/>
        <path fill="#FFF" d="M27.796 46.129c11.105 0 20.107-7.249 20.107-16.191 0-3.124-1.1-6.04-3.002-8.513-.094-.141-.217-.297-.372-.469l-.012-.013c-.65-.781-1.382-1.516-2.187-2.193C36.77 13.58 27.618 7.428 26.41 8.377c-1.05.825 1.73 4.862-1.478 5.533-.224.026-.447.054-.668.085h-.004v.001c-9.42 1.346-16.572 7.971-16.572 15.942 0 8.942 9.002 16.191 20.108 16.191"/>
        <path fill="#3ACE01" d="M22.806 24.839h.08c.522 0 .95.48.95 1.068v7.918c0 .587-.428 1.067-.95 1.067h-.08c-.522 0-.95-.48-.95-1.067v-7.918c0-.588.428-1.068.95-1.068m10.347.318c.185.194.3.459.3.75v7.918c0 .587-.466 1.067-1.036 1.067h-.086c-.57 0-1.036-.48-1.036-1.067v-4.648l-3.741 5.176c-.18.321-.516.54-.9.54h-.086c-.57 0-1.035-.48-1.035-1.068v-7.918c0-.588.466-1.068 1.035-1.068h.087c.57 0 1.035.48 1.035 1.068v4.735l3.769-5.309c.023-.037.048-.073.076-.107.103-.146.245-.246.403-.307.121-.051.254-.08.393-.08h.086c.174 0 .339.045.484.125.103.05.19.116.252.193m7.653 4.522v.086c0 .57-.455 1.037-1.012 1.037h-2.818v1.642h2.818c.557 0 1.012.467 1.012 1.038v.086c0 .57-.455 1.037-1.012 1.037h-3.915c-.557 0-1.012-.466-1.012-1.037v-7.692c0-.57.455-1.037 1.012-1.037h3.915c.557 0 1.012.466 1.012 1.037v.086c0 .571-.455 1.038-1.012 1.038h-2.818v1.642h2.818c.557 0 1.012.466 1.012 1.037m-24.96-4.84h4.101c.583 0 1.06.48 1.06 1.068v.089c0 .587-.477 1.067-1.06 1.067h-2.952v6.762c0 .587-.478 1.067-1.061 1.067h-.088c-.584 0-1.061-.48-1.061-1.067v-7.918c0-.588.477-1.068 1.06-1.068"/>
    </g>
</svg>
