<svg xmlns="http://www.w3.org/2000/svg" width="40" height="40" viewBox="0 0 40 40">
    <path fill="#8C8C8C" fill-rule="evenodd" d="M20 40c1.498 0 2.977-.165 4.416-.49 1.077-.242 1.754-1.313 1.51-2.39-.242-1.078-1.313-1.754-2.39-1.512-1.15.26-2.334.392-3.536.392-1.105 0-2 .895-2 2s.895 2 2 2zm14.103-5.819c1.053-1.047 1.987-2.208 2.784-3.461.593-.932.318-2.168-.614-2.761-.932-.593-2.168-.318-2.761.614-.638 1.003-1.386 1.933-2.23 2.772-.783.779-.786 2.045-.007 2.828.778.784 2.045.787 2.828.008zM40 20.11v-.107c0-1.464-.157-2.907-.466-4.312-.237-1.08-1.304-1.762-2.382-1.525-1.08.237-1.762 1.304-1.525 2.383.247 1.124.373 2.279.373 3.454v.085c-.006 1.105.884 2.005 1.989 2.011 1.105.006 2.005-.885 2.01-1.99zM34.258 5.974c-1.042-1.058-2.198-2-3.447-2.803-.929-.598-2.167-.33-2.764.6-.598.928-.33 2.166.599 2.764 1 .643 1.926 1.397 2.76 2.245.775.787 2.041.797 2.829.023.787-.775.797-2.041.023-2.829zM20.218.001L20.006 0c-1.43 0-2.837.15-4.21.443-1.08.231-1.768 1.294-1.537 2.375.231 1.08 1.294 1.768 2.375 1.537C17.73 4.12 18.857 4 20.004 4h.172c1.104.013 2.01-.873 2.021-1.977C22.21.918 21.323.013 20.22 0zM6.053 5.666C4.988 6.702 4.04 7.854 3.23 9.098c-.603.926-.341 2.165.584 2.767.926.603 2.165.342 2.768-.584.649-.996 1.407-1.918 2.26-2.748.791-.77.808-2.037.038-2.828-.77-.792-2.037-.809-2.828-.039zM.002 19.673l-.002.32c0 1.395.142 2.767.421 4.107.225 1.081 1.285 1.775 2.366 1.55 1.081-.226 1.775-1.285 1.55-2.366-.224-1.072-.337-2.17-.337-3.29l.002-.257c.018-1.105-.863-2.014-1.967-2.032C.93 17.687.02 18.568.003 19.673zM5.592 33.87c1.03 1.07 2.176 2.023 3.416 2.84.922.608 2.163.353 2.77-.57.608-.921.353-2.162-.569-2.77-.993-.654-1.91-1.417-2.736-2.274-.766-.796-2.032-.82-2.828-.054-.795.766-.82 2.032-.053 2.828z"/>
</svg>
