<svg xmlns="http://www.w3.org/2000/svg" width="9" height="9" viewBox="0 0 9 9">
    <g fill="none" fill-rule="evenodd">
        <circle cx="4.5" cy="4.5" r="4.5" fill="#FF3950"/>
        <path fill="#FFF" d="M3.945 4.5l-1.58-1.58c-.153-.154-.153-.402 0-.555.153-.153.401-.153.554 0L4.5 3.945l1.58-1.58c.154-.153.402-.153.555 0 .153.153.153.401 0 .554L5.055 4.5l1.58 1.58c.153.154.153.402 0 .555-.153.153-.401.153-.554 0L4.5 5.055l-1.58 1.58c-.154.153-.402.153-.555 0-.153-.153-.153-.401 0-.554L3.945 4.5z"/>
    </g>
</svg>
