<svg xmlns="http://www.w3.org/2000/svg" width="20" height="18" viewBox="0 0 20 18">
    <path fill="#00B896" d="M13.969 11.978l1.11-1.11c.174-.174.477-.053.477.197v5.049c0 .92-.747 1.666-1.667 1.666H1.667C.747 17.78 0 17.034 0 16.114V3.89c0-.92.747-1.666 1.667-1.666h9.496c.247 0 .372.298.198.476L10.25 3.81c-.052.053-.122.08-.198.08H1.667v12.223h12.222v-3.941c0-.073.028-.143.08-.195zm5.437-7.007l-9.118 9.118-3.139.348c-.91.1-1.684-.667-1.583-1.584l.347-3.139L15.031.596c.795-.795 2.08-.795 2.872 0l1.5 1.5c.795.795.795 2.084.003 2.875zm-3.43 1.073l-2.018-2.017-6.451 6.455-.254 2.267 2.268-.253 6.455-6.452zm2.25-2.767l-1.5-1.5c-.143-.142-.375-.142-.514 0L15.139 2.85l2.017 2.017 1.073-1.073c.14-.146.14-.375-.003-.517z"/>
</svg>
