<svg xmlns="http://www.w3.org/2000/svg" width="16" height="16" viewBox="0 0 16 16">
    <path fill="#00B896" fill-rule="evenodd" d="M8 4.16v.895c0 .102-.044.2-.122.272-.162.15-.425.15-.588 0L5.633 3.792c-.162-.15-.162-.394 0-.544L7.29 1.713c.078-.072.184-.113.294-.113.23 0 .416.172.416.385v.895c1.302-.001 2.575.463 3.6 1.348 2.369 2.044 2.678 5.678.69 8.114-1.988 2.437-5.52 2.755-7.89.71-1.152-.995-1.85-2.399-1.979-3.91-.064-.753.016-1.513.237-2.234.103-.337.453-.525.78-.419.328.107.51.466.407.803-.172.561-.234 1.152-.184 1.738.1 1.177.642 2.267 1.54 3.042 1.842 1.59 4.59 1.343 6.135-.552 1.547-1.896 1.306-4.721-.536-6.312-.798-.689-1.787-1.05-2.8-1.048z"/>
</svg>
