<?xml version="1.0" encoding="UTF-8"?>
<svg width="20px" height="20px" viewBox="0 0 20 20" version="1.1" xmlns="http://www.w3.org/2000/svg" xmlns:xlink="http://www.w3.org/1999/xlink">
    <title>icon/iconCart20Black</title>
    <g id="icon/iconCart20Black" stroke="none" stroke-width="1" fill="none" fill-rule="evenodd">
        <path d="M8.02731852,5 L11.9726815,5 L11.8555945,4.06330439 C11.8034665,3.64628037 11.4489657,3.33333333 11.0286963,3.33333333 L8.9713037,3.33333333 C8.55103431,3.33333333 8.19653347,3.64628037 8.14440547,4.06330439 L8.02731852,5 Z M13.6523205,5.00001627 C14.7097594,5.0015196 15.0974127,5.10718014 15.4921589,5.30752762 C15.8897529,5.50932045 16.2068006,5.80717134 16.4330017,6.19140355 C16.6592028,6.57563576 16.7890841,6.9586784 16.8561305,8.03142193 L17.3340034,15.6773876 C17.4201298,17.0554107 16.3728407,18.2423383 14.9948177,18.3284648 C14.9428991,18.3317097 14.8908918,18.3333333 14.8388719,18.3333333 L5.16112805,18.3333333 C3.78041618,18.3333333 2.66112805,17.2140452 2.66112805,15.8333333 C2.66112805,15.7813134 2.6627517,15.7293062 2.66599661,15.6773876 L3.14386946,8.03142193 C3.21091593,6.9586784 3.34079719,6.57563576 3.56699828,6.19140355 C3.79319937,5.80717134 4.11024712,5.50932045 4.5078411,5.30752762 C4.90258728,5.10718014 5.29024064,5.0015196 6.34767945,5.00001627 L6.49060901,3.85657983 C6.64699301,2.60550777 7.71049552,1.66666667 8.9713037,1.66666667 L11.0286963,1.66666667 C12.2895045,1.66666667 13.353007,2.60550777 13.509391,3.85657983 L13.6523205,5.00001627 L13.6523205,5.00001627 Z M7.07227975,6.66666667 L6.37067024,6.66666667 C5.62925592,6.66666667 5.44643712,6.70019729 5.2621424,6.7937333 C5.14838066,6.85147136 5.06797955,6.92700427 5.00325768,7.03694287 C4.89840783,7.21504407 4.85353858,7.39541526 4.80729043,8.13538574 L4.32941757,15.7813514 C4.32833593,15.7986576 4.32779472,15.8159934 4.32779472,15.8333333 C4.32779472,16.2935706 4.70089076,16.6666667 5.16112805,16.6666667 L14.8388719,16.6666667 C14.8562119,16.6666667 14.8735477,16.6661255 14.8908539,16.6650438 C15.3501949,16.636335 15.6992912,16.2406924 15.6705824,15.7813514 L15.1927096,8.13538574 C15.1464614,7.39541526 15.1015922,7.21504407 14.9967423,7.03694287 C14.9320204,6.92700427 14.8516193,6.85147136 14.7378576,6.7937333 C14.5535629,6.70019729 14.3707441,6.66666667 13.6293298,6.66666667 L12.9277202,6.66666667 C12.9196344,6.66678389 12.9115686,6.66678341 12.9035246,6.66666667 L7.09647819,6.66666667 C7.08843145,6.66678341 7.0803656,6.66678389 7.07227976,6.66666667 L7.07227975,6.66666667 Z" id="Shape" fill="#545454" fill-rule="nonzero"></path>
    </g>
</svg>