<svg xmlns="http://www.w3.org/2000/svg" width="55" height="55" viewBox="0 0 55 55">
    <defs>
        <linearGradient id="stholof77a" x1="91.232%" x2="22.892%" y1="-12.123%" y2="98.37%">
            <stop offset="0%" stop-color="#34B0DF"/>
            <stop offset="100%" stop-color="#1E88D3"/>
        </linearGradient>
    </defs>
    <g fill="none" fill-rule="evenodd">
        <rect width="54" height="54" x=".5" y=".5" fill="#FFF" stroke="#787880" stroke-opacity=".2" rx="7"/>
        <g fill-rule="nonzero" transform="translate(5 5)">
            <circle cx="22.455" cy="22.455" r="22.455" fill="url(#stholof77a)"/>
            <path fill="#FFF" d="M7.874 23.411c2.638-1.441 5.582-2.644 8.333-3.853 4.732-1.98 9.484-3.927 14.283-5.739.934-.308 2.612-.61 2.776.763-.09 1.943-.46 3.875-.715 5.807-.645 4.248-1.39 8.482-2.118 12.717-.25 1.41-2.031 2.14-3.17 1.238-2.74-1.835-5.5-3.653-8.203-5.53-.886-.894-.064-2.176.727-2.813 2.255-2.206 4.647-4.08 6.785-6.399.577-1.381-1.127-.217-1.689.14-3.088 2.111-6.1 4.351-9.356 6.207-1.663.908-3.601.132-5.264-.375-1.49-.612-3.674-1.23-2.389-2.163z"/>
        </g>
    </g>
</svg>
