<?xml version="1.0" encoding="UTF-8"?>
<svg width="20px" height="20px" viewBox="0 0 20 20" version="1.1" xmlns="http://www.w3.org/2000/svg" xmlns:xlink="http://www.w3.org/1999/xlink">
    <title>icon/iconAlertRedTri</title>
    <g id="icon/iconAlertRedTri" stroke="none" stroke-width="1" fill="none" fill-rule="evenodd">
        <path d="M8.20512144,4.00902747 L8.20712532,4.00571465 C8.58718904,3.38131769 9.26682763,3 9.99965294,3 C10.7324782,3 11.4121168,3.38131769 11.7941844,4.00902747 L17.719046,13.8660574 C18.0915546,14.5089245 18.0937787,15.3004927 17.7248884,15.9454285 C17.3559982,16.5903643 16.6714006,16.9917991 15.9188377,17 L4.07278752,17 C3.3279053,16.9917991 2.64330765,16.5903643 2.27441743,15.9454285 C1.90552721,15.3004927 1.9077513,14.5089245 2.28593666,13.8564393 L8.20512144,4.00902747 Z M3.49063958,14.5625639 C3.36647005,14.7768529 3.36572869,15.040709 3.48869209,15.2556876 C3.6116555,15.4706662 3.83985472,15.6044778 4.08046816,15.6071974 L15.9111571,15.6071974 C16.1594512,15.6044778 16.3876504,15.4706662 16.5106138,15.2556876 C16.6335772,15.040709 16.6328358,14.7768529 16.5143431,14.5721819 L10.5971621,4.72808289 C10.4704742,4.51995057 10.243928,4.39284468 9.99965294,4.39284468 C9.75591343,4.39284468 9.52982516,4.51939381 9.40297849,4.72671503 L3.49063958,14.5625639 Z M9.99965294,14.5625218 C9.51720378,14.5625218 9.12610147,14.1727732 9.12610147,13.6919939 C9.12610147,13.2112146 9.51720378,12.821466 9.99965294,12.821466 C10.4821021,12.821466 10.8732044,13.2112146 10.8732044,13.6919939 C10.8732044,14.1727732 10.4821021,14.5625218 9.99965294,14.5625218 Z M9.30081176,7.94650959 C9.30081176,7.56188616 9.61369361,7.25008725 9.99965294,7.25008725 C10.3856123,7.25008725 10.6984941,7.56188616 10.6984941,7.94650959 L10.6984941,10.7321989 C10.6984941,11.1168224 10.3856123,11.4286213 9.99965294,11.4286213 C9.61369361,11.4286213 9.30081176,11.1168224 9.30081176,10.7321989 L9.30081176,7.94650959 Z" id="Shape" fill="#FF3950"></path>
    </g>
</svg>