<svg xmlns="http://www.w3.org/2000/svg" xmlns:xlink="http://www.w3.org/1999/xlink" width="26" height="26" viewBox="0 0 26 26">
    <defs>
        <path id="t499hldlqa" d="M16.72 9.045c3.058 3.105 3.016 8.083.018 11.14l-.018.02-3.44 3.488c-3.035 3.076-7.97 3.076-11.004 0-3.035-3.077-3.035-8.083 0-11.16l1.899-1.926c.504-.51 1.371-.171 1.397.55.033.92.196 1.845.496 2.738.102.302.03.636-.193.862l-.67.68c-1.435 1.454-1.48 3.823-.06 5.292 1.435 1.484 3.793 1.493 5.239.027l3.44-3.488c1.443-1.464 1.437-3.829 0-5.286-.19-.192-.38-.341-.53-.445-.214-.149-.345-.392-.355-.654-.02-.55.171-1.114.599-1.548l1.077-1.093c.283-.286.726-.322 1.054-.09.375.266.727.565 1.05.893zm-4-6.738L9.28 5.796l-.018.02c-2.998 3.056-3.04 8.034.018 11.139.324.328.676.627 1.05.893.329.232.772.196 1.055-.09l1.077-1.093c.428-.434.62-.999.6-1.547-.01-.263-.143-.506-.356-.655-.15-.104-.34-.253-.53-.445-1.437-1.457-1.443-3.822 0-5.286l3.44-3.488c1.446-1.466 3.804-1.457 5.238.027 1.42 1.469 1.376 3.838-.059 5.293l-.67.679c-.222.226-.295.56-.193.862.3.893.463 1.817.496 2.737.026.722.893 1.062 1.397.55l1.9-1.926c3.034-3.076 3.034-8.082 0-11.159-3.034-3.076-7.97-3.076-11.005 0z"/>
    </defs>
    <g fill="none" fill-rule="evenodd">
        <use fill="#00B896" fill-rule="nonzero" xlink:href="#t499hldlqa"/>
    </g>
</svg>
