<?xml version="1.0" encoding="UTF-8"?>
<svg width="16px" height="16px" viewBox="0 0 16 16" version="1.1" xmlns="http://www.w3.org/2000/svg" xmlns:xlink="http://www.w3.org/1999/xlink">
    <title>icon/iconSearch16 Copy</title>
    <defs>
        <path d="M15.7820206,14.8954204 L14.8976024,15.779709 C14.6038381,16.0734303 14.1288149,16.0734303 13.8381757,15.779709 L10.7192734,12.6643882 C10.5786415,12.523777 10.5005127,12.3331706 10.5005127,12.1331901 L10.5005127,11.6238649 C9.39733385,12.4862806 8.0097661,12.9987306 6.5003174,12.9987306 C2.90951707,12.9987306 0,10.0896397 0,6.4993653 C0,2.90909091 2.90951707,0 6.5003174,0 C10.0911177,0 13.0006348,2.90909091 13.0006348,6.4993653 C13.0006348,8.00859291 12.4881098,9.39595743 11.6255677,10.4989747 L12.1349675,10.4989747 C12.3349773,10.4989747 12.5256116,10.5770921 12.6662435,10.7177033 L15.7820206,13.8330241 C16.0726598,14.1267454 16.0726598,14.6016991 15.7820206,14.8954204 Z M11,6.5 C11,4.01176471 8.98823529,2 6.5,2 C4.01176471,2 2,4.01176471 2,6.5 C2,8.98823529 4.01176471,11 6.5,11 C8.98823529,11 11,8.98823529 11,6.5 Z" id="path-1"></path>
    </defs>
    <g id="icon/iconSearch16-Copy" stroke="none" stroke-width="1" fill="none" fill-rule="evenodd">
        <mask id="mask-2" fill="white">
            <use xlink:href="#path-1"></use>
        </mask>
        <use id="search-plus" fill="#8C8C8C" fill-rule="nonzero" xlink:href="#path-1"></use>
    </g>
</svg>