<svg xmlns="http://www.w3.org/2000/svg" xmlns:xlink="http://www.w3.org/1999/xlink" width="55" height="55" viewBox="0 0 55 55">
    <defs>
        <path id="e0z5ibg71a" d="M31.675 23.083c3.522 3.57 3.474 9.295.021 12.81l-.021.023-3.962 4.011c-3.494 3.538-9.18 3.538-12.673 0-3.494-3.537-3.494-9.294 0-12.832l2.188-2.215c.58-.587 1.579-.197 1.609.633.038 1.058.225 2.12.571 3.147.117.348.033.732-.223.992l-.772.781c-1.652 1.673-1.704 4.397-.068 6.087 1.653 1.706 4.368 1.716 6.033.03l3.962-4.01c1.662-1.684 1.655-4.404 0-6.08-.219-.22-.438-.391-.61-.511-.246-.171-.398-.45-.41-.753-.023-.63.198-1.28.69-1.779l1.241-1.257c.326-.33.836-.37 1.214-.103.432.306.837.649 1.21 1.026zm-4.388-8.01l-3.962 4.011-.021.022c-3.453 3.516-3.501 9.24.021 12.81.373.378.778.722 1.21 1.027.377.267.888.226 1.214-.103l1.24-1.257c.493-.499.714-1.149.69-1.78-.011-.302-.163-.58-.41-.752-.17-.12-.39-.291-.609-.511-1.655-1.676-1.662-4.396 0-6.08l3.962-4.01c1.665-1.686 4.38-1.676 6.033.03 1.636 1.69 1.584 4.414-.069 6.087l-.771.781c-.257.26-.34.644-.223.992.346 1.026.533 2.089.571 3.147.03.83 1.03 1.22 1.61.633l2.187-2.215c3.494-3.538 3.494-9.295 0-12.832-3.494-3.538-9.179-3.538-12.673 0z"/>
    </defs>
    <g fill="none" fill-rule="evenodd">
        <rect width="52" height="52" x="1.5" y="1.5" stroke="#00B896" stroke-width="3" rx="7"/>
        <use fill="#00B896" fill-rule="nonzero" xlink:href="#e0z5ibg71a"/>
    </g>
</svg>
