<svg xmlns="http://www.w3.org/2000/svg" viewBox="0 0 1498.75 288"><defs><style>.cls-1{fill:#ffae28;}.cls-2{fill:#00b896;}.cls-3{fill:#ff3950;}</style></defs><g id="圖層_2" data-name="圖層 2"><g id="圖層_6" data-name="圖層 6"><path class="cls-1" d="M48,0H26A26,26,0,0,0,0,26V98a4,4,0,0,0,4,4H50a4,4,0,0,0,4-4V70A16,16,0,0,1,70,54h66a10,10,0,0,0,9.76-7.83l8.1-36.43A8,8,0,0,0,146,0Z"/><path class="cls-2" d="M0,138V276a12,12,0,0,0,12,12H92.88a4,4,0,0,0,3.88-3l10-40a4,4,0,0,0-3.88-5H64a16,16,0,0,1-16-16V138a6,6,0,0,0-6-6H6A6,6,0,0,0,0,138Z"/><path class="cls-2" d="M288,150V24A24,24,0,0,0,264,0H194a10,10,0,0,0-9.76,7.83L175.62,46.7a6,6,0,0,0,5.86,7.3H210a24,24,0,0,1,24,24v72a6,6,0,0,0,6,6h42A6,6,0,0,0,288,150Z"/><path class="cls-3" d="M240,288h20a28,28,0,0,0,28-28V190a4,4,0,0,0-4-4H240a6,6,0,0,0-6,6v18a24,24,0,0,1-24,24H152a10,10,0,0,0-9.76,7.83l-8.64,38.87a6,6,0,0,0,5.86,7.3Z"/><path d="M458,238.77a105.61,105.61,0,0,1-31.5-4.37A75.37,75.37,0,0,1,399.75,219a19.48,19.48,0,0,1-5-6.25,15.46,15.46,0,0,1-1.75-7,14.35,14.35,0,0,1,4.12-10.12,13.67,13.67,0,0,1,10.38-4.38,13.26,13.26,0,0,1,8.5,3A78.94,78.94,0,0,0,434.88,206q9.36,4,23.12,4a48.49,48.49,0,0,0,17-2.87,33.42,33.42,0,0,0,12.5-7.75,15.54,15.54,0,0,0,4.75-11.13,18.92,18.92,0,0,0-4.5-12.75q-4.5-5.25-13.75-8.87T450.5,161a104.68,104.68,0,0,1-23.75-6.12,55.18,55.18,0,0,1-17.13-10.5,41.5,41.5,0,0,1-10.37-15,51,51,0,0,1-3.5-19.38q0-16.24,8.37-27.75a52.56,52.56,0,0,1,22.63-17.5,80.39,80.39,0,0,1,31.5-6,90.37,90.37,0,0,1,30.13,4.88Q502.24,68.53,511,76q7.25,5.76,7.25,13.25a14.25,14.25,0,0,1-4.25,10,13.34,13.34,0,0,1-10,4.5,11,11,0,0,1-6.75-2.25A45.21,45.21,0,0,0,486.5,94.9a97.18,97.18,0,0,0-14.25-5.25,51.43,51.43,0,0,0-14-2.13q-10.75,0-18.13,2.75T429,97.77a17.27,17.27,0,0,0-3.75,11,17.87,17.87,0,0,0,4.37,12.38Q434,126,442.25,128.9A145.29,145.29,0,0,0,462,134a201.61,201.61,0,0,1,26.38,6.5,61.62,61.62,0,0,1,18.87,9.63A36.44,36.44,0,0,1,518.5,164.9q3.75,8.88,3.75,21.62,0,16.26-9,28a57.46,57.46,0,0,1-23.63,18A79.52,79.52,0,0,1,458,238.77Z"/><path d="M616.25,100q18,0,27.37,7.75A39.43,39.43,0,0,1,656.5,128.4,109.14,109.14,0,0,1,660,157v64a15,15,0,0,1-4.25,10.88,15.41,15.41,0,0,1-21.5,0A15,15,0,0,1,630,221V157a51.5,51.5,0,0,0-2-14.87,20.44,20.44,0,0,0-7.25-10.63q-5.25-4-15-4a31.37,31.37,0,0,0-16.25,4,25.87,25.87,0,0,0-10.13,10.63A32.28,32.28,0,0,0,576,157v64a15,15,0,0,1-4.25,10.88,15.41,15.41,0,0,1-21.5,0A15,15,0,0,1,546,221V66.52a15,15,0,0,1,4.25-10.87,15.38,15.38,0,0,1,21.5,0A15,15,0,0,1,576,66.52v62l-3.75-.75a55.87,55.87,0,0,1,6.25-9.12,53.93,53.93,0,0,1,9.75-9.13A52.07,52.07,0,0,1,601,102.65,43.07,43.07,0,0,1,616.25,100Z"/><path d="M800.25,100A14.6,14.6,0,0,1,811,104.27a14.91,14.91,0,0,1,4.25,11V221A15,15,0,0,1,811,231.9a15.41,15.41,0,0,1-21.5,0A15,15,0,0,1,785.25,221V208.77l5.5,2.25q0,3.25-3.5,7.88a47.91,47.91,0,0,1-9.5,9.12,58.11,58.11,0,0,1-14.13,7.63A48.76,48.76,0,0,1,746,238.77a57.12,57.12,0,0,1-31.25-8.87,62.41,62.41,0,0,1-22.13-24.5q-8.13-15.63-8.12-35.88,0-20.49,8.12-36.12a63.13,63.13,0,0,1,21.88-24.5A55,55,0,0,1,745,100a58,58,0,0,1,19.75,3.25,59.23,59.23,0,0,1,15.62,8.25,47.36,47.36,0,0,1,10.25,10.13q3.63,5.13,3.63,8.62l-9,3.25V115.27a15,15,0,0,1,4.25-10.87A14.33,14.33,0,0,1,800.25,100Zm-50.5,111.25a33.87,33.87,0,0,0,19.25-5.5,37,37,0,0,0,12.87-15,47.92,47.92,0,0,0,4.63-21.25,48.56,48.56,0,0,0-4.63-21.5A37.15,37.15,0,0,0,769,133a34,34,0,0,0-19.25-5.5,33.5,33.5,0,0,0-19,5.5,37.17,37.17,0,0,0-12.88,15,48.55,48.55,0,0,0-4.62,21.5,47.92,47.92,0,0,0,4.62,21.25,37,37,0,0,0,12.88,15A33.42,33.42,0,0,0,749.75,211.27Z"/><path d="M860.24,236.27a14.34,14.34,0,0,1-10.75-4.37A15,15,0,0,1,845.24,221V117.77a15,15,0,0,1,4.25-10.87,15.38,15.38,0,0,1,21.5,0,15,15,0,0,1,4.25,10.87v23.5l-1.75-16.75a38.73,38.73,0,0,1,7.13-10.62,42,42,0,0,1,9.87-7.75,45,45,0,0,1,11.75-4.63,53.4,53.4,0,0,1,12.5-1.5,19.16,19.16,0,0,1,12.63,4.25q5.11,4.26,5.12,10,0,8.25-4.25,11.88a14,14,0,0,1-9.25,3.62,20.62,20.62,0,0,1-8.62-1.75,21.88,21.88,0,0,0-18,.38,25.06,25.06,0,0,0-8.5,6.62,34.7,34.7,0,0,0-6.25,11.13,46.14,46.14,0,0,0-2.38,15.62V221A15,15,0,0,1,871,231.9,14.34,14.34,0,0,1,860.24,236.27Z"/><path d="M1009.49,238.77q-21.24,0-36.87-8.87a61.26,61.26,0,0,1-24-24.13q-8.39-15.24-8.38-34.5,0-22.5,9.13-38.37a64.59,64.59,0,0,1,23.87-24.38,61.71,61.71,0,0,1,31.25-8.5,56.93,56.93,0,0,1,24.13,5.25,66,66,0,0,1,20.12,14.38,69.77,69.77,0,0,1,13.88,21.12,64.35,64.35,0,0,1,5.12,25.5A12.82,12.82,0,0,1,1063,176a15.9,15.9,0,0,1-10.5,3.75H957l-7.5-25h91.75l-5.5,5V153a22.82,22.82,0,0,0-5.12-13,33.59,33.59,0,0,0-11.5-9.12,32.79,32.79,0,0,0-14.63-3.38,47.52,47.52,0,0,0-14,2,27,27,0,0,0-11.25,6.75,33,33,0,0,0-7.5,12.75Q969,157,969,169.27q0,13.5,5.63,22.88A38.42,38.42,0,0,0,1008,211.27a58.05,58.05,0,0,0,14.75-1.5,33,33,0,0,0,8.88-3.62q3.38-2.13,6.12-3.63a19.09,19.09,0,0,1,8.5-2.25,12.58,12.58,0,0,1,12.75,12.5q0,6.75-7,12.25-6.49,5.5-18.25,9.63A72.64,72.64,0,0,1,1009.49,238.77Z"/><path d="M1135,207l65.25,0a15.23,15.23,0,0,1,10.87,4.13,13.94,13.94,0,0,1,4.38,10.62,13.66,13.66,0,0,1-4.38,10.38,15.22,15.22,0,0,1-10.87,4.12H1119A14.93,14.93,0,0,1,1103.75,221V76.52a14.55,14.55,0,0,1,4.5-10.87,15.8,15.8,0,0,1,11.5-4.38,15,15,0,0,1,10.63,4.38A14.37,14.37,0,0,1,1135,76.52"/><path d="M1328.5,102.52a14.36,14.36,0,0,1,10.75,4.38,15,15,0,0,1,4.25,10.87v63.5q0,26.5-14.75,42t-42.5,15.5q-27.75,0-42.38-15.5t-14.62-42v-63.5a15,15,0,0,1,4.25-10.87,15.38,15.38,0,0,1,21.5,0,15,15,0,0,1,4.25,10.87v63.5q0,15.25,6.75,22.63t20.25,7.37q13.74,0,20.5-7.37t6.75-22.63v-63.5a15,15,0,0,1,4.25-10.87A14.33,14.33,0,0,1,1328.5,102.52Z"/><path d="M1427.25,100a55.08,55.08,0,0,1,19.25,3.25,56,56,0,0,1,15.12,8.25,49.5,49.5,0,0,1,10,10.13q3.63,5.13,3.63,8.62l-6.5,3.25V115.27A15,15,0,0,1,1473,104.4a14.33,14.33,0,0,1,10.75-4.38,14.6,14.6,0,0,1,10.75,4.25,14.91,14.91,0,0,1,4.25,11V226.52q0,21.75-9.38,34.88a53.06,53.06,0,0,1-24.62,19,90.49,90.49,0,0,1-32.75,5.87,88.3,88.3,0,0,1-13-1.25q-8-1.25-15.25-3a85.84,85.84,0,0,1-11-3.25q-7.5-3.25-10.38-8.12a12.28,12.28,0,0,1-1.12-10.38q2.25-7.24,7.25-9.87a12.5,12.5,0,0,1,10.5-.63q2.49.75,8.25,3a124.75,124.75,0,0,0,12.62,4.13,46.88,46.88,0,0,0,12.13,1.87q18.75,0,27.75-7.5t9-20.75V208.77l3,2.25q0,3.25-3.38,7.88a45.79,45.79,0,0,1-9.25,9.12,56.24,56.24,0,0,1-13.87,7.63,46.39,46.39,0,0,1-17,3.12,59.24,59.24,0,0,1-32-8.87,62.69,62.69,0,0,1-22.5-24.5q-8.25-15.63-8.25-35.88,0-20.49,8.25-36.12A63.3,63.3,0,0,1,1396,108.9,57.12,57.12,0,0,1,1427.25,100Zm4.75,27.5a35.58,35.58,0,0,0-19.75,5.5A37.34,37.34,0,0,0,1399,148a47.4,47.4,0,0,0-4.75,21.5,46.78,46.78,0,0,0,4.75,21.25,37.21,37.21,0,0,0,13.25,15,35.5,35.5,0,0,0,19.75,5.5,36,36,0,0,0,20-5.5,37.35,37.35,0,0,0,13.25-15,46.91,46.91,0,0,0,4.75-21.25,47.53,47.53,0,0,0-4.75-21.5A37.49,37.49,0,0,0,1452,133,36.07,36.07,0,0,0,1432,127.52Z"/></g></g></svg>