<svg xmlns="http://www.w3.org/2000/svg" width="17" height="17" viewBox="0 0 17 17">
    <g fill="none" fill-rule="evenodd">
        <path fill="#FFAE28" d="M2.107 0h-.966C.511 0 0 .51 0 1.139v3.154c0 .097.079.175.176.175h2.02c.096 0 .175-.078.175-.175V3.242c0-.484.393-.876.878-.876H5.97c.206 0 .384-.143.428-.343L6.754.426C6.803.208 6.636 0 6.41 0H2.107z" transform="translate(1.686 2.682)"/>
        <path fill="#00B896" d="M0 6.046v6.045c0 .29.236.526.527.526h3.55c.081 0 .151-.055.171-.133l.439-1.752c.028-.11-.056-.218-.17-.218H2.81c-.388 0-.703-.314-.703-.7V6.045c0-.146-.118-.263-.263-.263H.264C.117 5.783 0 5.9 0 6.046M12.644 6.571v-5.52c0-.58-.472-1.051-1.053-1.051H8.518c-.206 0-.384.143-.428.343l-.38 1.703c-.036.164.09.32.258.32H9.22c.582 0 1.053.47 1.053 1.051v3.154c0 .145.118.263.264.263h1.844c.145 0 .263-.118.263-.263" transform="translate(1.686 2.682)"/>
        <path fill="#FF3950" d="M10.537 12.617h.878c.679 0 1.23-.55 1.23-1.227V8.324c0-.097-.08-.176-.176-.176h-1.932c-.146 0-.264.118-.264.263V9.2c0 .58-.471 1.051-1.053 1.051H6.674c-.205 0-.384.143-.428.343l-.38 1.703c-.036.164.09.32.258.32h4.413z" transform="translate(1.686 2.682)"/>
    </g>
</svg>
